<svg xmlns="http://www.w3.org/2000/svg" xmlns:xlink="http://www.w3.org/1999/xlink" width="85" height="14" viewBox="0 0 85 14">
    <defs>
        <path id="a" d="M.115.165h8.722v13.368H.115z"/>
        <path id="c" d="M.357.368H9.38v13.165H.357z"/>
        <path id="e" d="M.16.165h9.093v13.368H.16z"/>
    </defs>
    <g fill="none" fill-rule="evenodd">
        <path fill="#FEFEFE" d="M0 0h1.601L9.72 10.509h.038V0H11v12H9.399L1.28 1.492h-.038V12H0z"/>
        <path fill="#FEFEFE" d="M8.918 0v9.589L2.184 0H0v13h2.082V3.411L8.816 13H11V0H8.918zm.946 11.5V.937h.19v11.128h-.743L2.032 1.7l-.176-.2h-.72v10.564h-.19V.936h.743L8.968 11.3l.176.2h.72zM15 0h7.715v1.017h-6.54v4.271h6.13v1.017h-6.13v4.678H23V12h-8z"/>
        <path fill="#FEFEFE" d="M15 0v13h9v-1.959h-6.84V7.275h6.143V5.316H17.16V1.958h6.554V0H15zm.981.936h6.752v.086h-6.555v5.23h6.144v.087h-6.144v5.639h6.84v.086h-7.037V.936zM30.805 5.695L26.434 0h1.409l3.684 4.881L35.157 0h1.428L32.25 5.695 37 12h-1.48l-4.047-5.424L27.427 12H26z"/>
        <path fill="#FEFEFE" d="M35.16 0l-3.134 4.561L28.846 0h-2.447l4.391 6.194L26 13h2.46l3.518-5.105L35.495 13H38l-4.736-6.806L37.62 0h-2.46zm.48.936h.189l-3.695 5.256 4.086 5.872h-.245l-3.997-5.8-3.997 5.8h-.19l4.133-5.872L28.198.936h.17l3.663 5.253L35.64.936zM44.805 5.695L40.434 0h1.409l3.684 4.881L49.157 0h1.428L46.25 5.695 51 12h-1.48l-4.047-5.424L41.427 12H40z"/>
        <path fill="#FEFEFE" d="M49.16 0l-3.135 4.561L42.845 0h-2.446l4.391 6.194L40 13h2.46l3.517-5.105L49.495 13H52l-4.736-6.806L51.62 0h-2.46zm.48.936h.189l-3.695 5.256 4.086 5.872h-.245l-3.998-5.8-3.996 5.8h-.19l4.133-5.872L42.198.936h.17l3.663 5.253L49.639.936zM54.874 10.349c.232.577.548 1.022.948 1.333.4.312.948.467 1.643.467.452 0 .852-.068 1.2-.203.347-.136.635-.323.86-.56a2.39 2.39 0 0 0 .513-.833c.116-.317.174-.657.174-1.02 0-.441-.095-.82-.287-1.138a2.364 2.364 0 0 0-.747-.773 3.284 3.284 0 0 0-1.044-.433 5.155 5.155 0 0 0-1.173-.136h-.452v-1.02h.521c.324 0 .652-.042.982-.127.33-.085.627-.217.887-.399.261-.181.473-.417.635-.705.163-.289.244-.637.244-1.045 0-.645-.207-1.175-.618-1.588-.412-.413-.965-.62-1.66-.62-.51 0-.968.127-1.374.382a2.704 2.704 0 0 0-.956 1.028l-.991-.544c.336-.623.797-1.076 1.382-1.359a4.392 4.392 0 0 1 1.938-.425c.464 0 .905.065 1.322.196.417.13.782.322 1.096.577.313.255.559.575.738.96.18.386.27.839.27 1.36 0 .656-.186 1.237-.556 1.74-.371.505-.916.853-1.635 1.045v.035a3.155 3.155 0 0 1 1.895 1.07c.232.272.412.577.54.917.127.34.19.702.19 1.087 0 .476-.078.923-.234 1.343-.157.419-.394.784-.713 1.095a3.413 3.413 0 0 1-1.19.739c-.476.181-1.033.272-1.67.272-.927 0-1.713-.19-2.356-.57-.643-.379-1.128-.976-1.452-1.791l1.13-.357z"/>
        <g transform="translate(53)">
            <mask id="b" fill="#fff">
                <use xlink:href="#a"/>
            </mask>
            <path fill="#FEFEFE" d="M1.846 2.246l.16.088c.236-.317.524-.584.862-.796.304-.191.636-.323.99-.394a3.756 3.756 0 0 0-1.085.33 2.489 2.489 0 0 0-.927.772zm3.5-1.06c.45.117.838.337 1.156.658.5.501.753 1.145.753 1.913 0 .485-.102.912-.302 1.27a2.585 2.585 0 0 1-.613.736c.26-.152.471-.34.64-.57.315-.428.467-.908.467-1.47 0-.45-.076-.843-.226-1.166a2.23 2.23 0 0 0-.61-.795 2.78 2.78 0 0 0-.935-.49 3.522 3.522 0 0 0-.33-.087zm-1.36 5.4c.42.002.843.052 1.259.149l.012.002v-.413l-.123.034A4.44 4.44 0 0 1 4.03 6.5h-.044v.086zM1.4 10.99c.267.49.611.854 1.043 1.11.256.15.541.267.855.35a2.496 2.496 0 0 1-.774-.402 3.367 3.367 0 0 1-.91-1.126l-.214.068zm5.254-3.604c.272.213.5.472.683.773.234.388.353.851.353 1.375 0 .414-.068.81-.202 1.176-.138.376-.344.711-.613.994-.272.287-.62.515-1.033.676a3.414 3.414 0 0 1-.788.199c.37-.034.702-.107.994-.218.41-.156.756-.37 1.026-.634.272-.265.469-.568.602-.926.137-.366.206-.763.206-1.182 0-.328-.055-.64-.162-.927a2.625 2.625 0 0 0-1.066-1.306zm-2.102 6.148c-1.011 0-1.887-.214-2.603-.635-.732-.433-1.288-1.114-1.65-2.023l-.184-.462 2.04-.643.163.408c.2.498.47.88.801 1.139.311.243.764.366 1.346.366a2.81 2.81 0 0 0 1.022-.171c.28-.11.512-.259.688-.444a1.91 1.91 0 0 0 .414-.673c.097-.265.145-.555.145-.862 0-.355-.074-.658-.22-.901a1.88 1.88 0 0 0-.6-.621 2.836 2.836 0 0 0-.89-.369A4.724 4.724 0 0 0 3.96 7.52h-.93V5.567h1c.281 0 .571-.038.86-.112.274-.07.52-.181.731-.328.2-.14.366-.324.493-.55.123-.218.185-.493.185-.82 0-.524-.158-.937-.483-1.263-.32-.322-.751-.479-1.317-.479-.42 0-.786.101-1.116.309-.338.212-.597.49-.792.852l-.228.424-1.825-1 .217-.403C1.14 1.49 1.675.964 2.35.637a4.897 4.897 0 0 1 2.15-.473 4.92 4.92 0 0 1 1.467.218c.475.148.897.371 1.256.664.367.298.659.676.868 1.124.208.445.313.968.313 1.553 0 .753-.218 1.431-.647 2.014a3.005 3.005 0 0 1-.789.742l.082.046c.364.214.682.48.947.79.266.311.475.666.62 1.055.147.39.221.81.221 1.248 0 .528-.088 1.033-.263 1.502-.18.482-.458.908-.825 1.266-.364.356-.82.64-1.355.844-.528.201-1.149.303-1.842.303z" mask="url(#b)"/>
        </g>
        <path fill="#FEFEFE" d="M68.853 6.51c-.406 0-.782.073-1.13.22a2.919 2.919 0 0 0-.913.603 2.811 2.811 0 0 0-.843 1.996c0 .42.07.802.209 1.147.14.346.336.643.59.892.255.25.56.442.914.577.353.136.744.204 1.173.204.429 0 .82-.068 1.174-.204a2.572 2.572 0 0 0 1.504-1.47c.139-.344.208-.727.208-1.146 0-.384-.075-.75-.226-1.096a2.828 2.828 0 0 0-1.538-1.503 2.89 2.89 0 0 0-1.122-.22zm-1.6-.375h.035c.21-.17.49-.296.843-.382.354-.085.681-.127.983-.127.545 0 1.049.096 1.512.289.464.192.864.456 1.2.79.336.334.597.725.783 1.172.185.447.278.931.278 1.452 0 .544-.102 1.045-.304 1.504a3.494 3.494 0 0 1-.844 1.18 3.94 3.94 0 0 1-1.278.773 4.49 4.49 0 0 1-1.608.28 4.49 4.49 0 0 1-1.608-.28 3.935 3.935 0 0 1-1.278-.773 3.488 3.488 0 0 1-.844-1.18 3.682 3.682 0 0 1-.303-1.504c0-.317.034-.617.103-.9.07-.283.163-.552.279-.807.116-.255.238-.495.365-.722.128-.226.255-.442.383-.646L69.288.835h1.321l-3.355 5.3z"/>
        <g transform="translate(63.985)">
            <mask id="d" fill="#fff">
                <use xlink:href="#c"/>
            </mask>
            <path fill="#FEFEFE" d="M4.868 6.976a2.406 2.406 0 0 0-1.705.687c-.216.212-.39.465-.515.753a2.262 2.262 0 0 0-.189.913c0 .36.06.687.176.976a2.094 2.094 0 0 0 1.234 1.206c.592.228 1.406.228 1.998 0 .29-.112.543-.27.75-.472.21-.207.369-.447.484-.734.117-.289.176-.617.176-.976 0-.32-.063-.627-.188-.913a2.377 2.377 0 0 0-.516-.753 2.435 2.435 0 0 0-1.705-.687zm.705-5.674l-3.2 5.193c-.125.2-.249.41-.372.63a8.638 8.638 0 0 0-.347.687 4.17 4.17 0 0 0-.252.727c-.06.245-.09.51-.09.79 0 .478.089.921.265 1.319.176.398.422.742.731 1.024a3.475 3.475 0 0 0 1.212.708 3.13 3.13 0 0 1-1.076-.682 3.06 3.06 0 0 1-.698-1.05 3.513 3.513 0 0 1-.242-1.319c0-.447.09-.877.265-1.279a3.284 3.284 0 0 1 1.217-1.448h-.54l.417-.712 2.904-4.588h-.194zm.041 4.82c.193.044.38.103.563.179a3.308 3.308 0 0 1 1.791 1.75c.175.403.264.833.264 1.278 0 .476-.081.92-.242 1.318a3.047 3.047 0 0 1-1.873 1.769 3.478 3.478 0 0 0 1.31-.743c.31-.283.556-.628.732-1.025.176-.399.265-.842.265-1.319 0-.457-.082-.886-.243-1.277a3.119 3.119 0 0 0-.68-1.02 3.29 3.29 0 0 0-1.887-.91zm-.746 7.411a4.998 4.998 0 0 1-1.781-.312 4.436 4.436 0 0 1-1.432-.867A3.973 3.973 0 0 1 .7 11.018a4.15 4.15 0 0 1-.343-1.689c0-.353.04-.692.117-1.009.077-.312.18-.611.307-.888.12-.265.249-.52.383-.757.131-.233.262-.455.393-.664L5.033.368H7.48L4.408 5.223c.925-.155 1.704-.035 2.42.262.52.216.975.516 1.354.893.378.376.676.821.884 1.323A4.23 4.23 0 0 1 9.38 9.33c0 .605-.116 1.173-.344 1.69-.228.515-.55.964-.956 1.335-.4.368-.883.66-1.431.867a4.998 4.998 0 0 1-1.781.312z" mask="url(#d)"/>
        </g>
        <path fill="#FEFEFE" d="M77.234 6.85c0 .317.01.665.034 1.044.023.38.07.764.14 1.155.069.391.17.773.304 1.147.133.374.307.705.521.994.215.289.478.52.791.696.313.176.69.263 1.13.263.43 0 .803-.087 1.122-.263a2.47 2.47 0 0 0 .8-.696c.214-.29.388-.62.521-.994.134-.374.235-.756.305-1.147.07-.39.115-.776.139-1.155.023-.38.034-.727.034-1.045 0-.305-.011-.651-.034-1.036-.024-.385-.07-.773-.14-1.164a7.102 7.102 0 0 0-.304-1.147 3.79 3.79 0 0 0-.521-.994 2.48 2.48 0 0 0-.8-.696c-.319-.175-.693-.263-1.122-.263-.429 0-.802.088-1.12.263a2.471 2.471 0 0 0-.8.696c-.215.29-.39.62-.522.994a7.153 7.153 0 0 0-.305 1.147c-.07.39-.116.779-.139 1.164-.023.385-.034.73-.034 1.036m-1.148 0c0-.43.02-.886.061-1.368a9.39 9.39 0 0 1 .226-1.41c.11-.459.26-.894.452-1.308.191-.413.437-.778.739-1.096A3.354 3.354 0 0 1 78.65.911c.423-.186.923-.28 1.503-.28.58 0 1.081.094 1.505.28.422.187.784.44 1.086.756.301.318.548.683.74 1.096.19.414.341.85.451 1.309.11.458.185.928.226 1.41.04.481.061.937.061 1.367 0 .442-.02.9-.06 1.376a9.464 9.464 0 0 1-.227 1.402c-.11.459-.26.894-.452 1.308a4.04 4.04 0 0 1-.739 1.096 3.36 3.36 0 0 1-1.086.756c-.424.186-.925.28-1.505.28-.58 0-1.08-.094-1.503-.28a3.347 3.347 0 0 1-1.087-.756 4.027 4.027 0 0 1-.739-1.096 6.96 6.96 0 0 1-.452-1.308 9.4 9.4 0 0 1-.226-1.402 15.996 15.996 0 0 1-.061-1.376"/>
        <g transform="translate(75.448)">
            <mask id="f" fill="#fff">
                <use xlink:href="#e"/>
            </mask>
            <path fill="#FEFEFE" d="M4.707 2.015c-.349 0-.639.067-.887.204-.26.143-.473.328-.648.564-.187.25-.34.544-.457.873-.125.349-.22.71-.285 1.073-.066.37-.11.745-.133 1.112-.022.374-.033.71-.033 1.008 0 .312.01.654.033 1.017.023.362.067.733.133 1.103.064.363.16.724.285 1.073.117.328.27.622.457.874.176.237.386.422.642.566.238.133.539.2.893.2.344 0 .642-.068.887-.202a1.97 1.97 0 0 0 .647-.564c.187-.252.34-.546.458-.874a6.7 6.7 0 0 0 .284-1.073c.066-.37.11-.741.133-1.103.023-.368.034-.71.034-1.017 0-.297-.011-.634-.034-1.008a9.919 9.919 0 0 0-.133-1.113A6.751 6.751 0 0 0 6.7 3.656a3.352 3.352 0 0 0-.458-.874 1.986 1.986 0 0 0-.648-.564c-.244-.135-.543-.203-.886-.203M4.04 1.15c-.235.04-.45.102-.641.187-.363.16-.676.378-.934.648a3.585 3.585 0 0 0-.654.97c-.178.385-.32.796-.422 1.223a8.996 8.996 0 0 0-.215 1.341c-.04.464-.06.91-.06 1.33 0 .43.02.88.06 1.337.038.45.11.898.215 1.335.103.427.245.838.422 1.221.17.367.39.694.654.97.257.27.57.49.933.649.177.078.373.137.587.177a2.446 2.446 0 0 1-.647-.247 2.977 2.977 0 0 1-.94-.827 4.256 4.256 0 0 1-.586-1.115 7.564 7.564 0 0 1-.324-1.22c-.072-.405-.12-.81-.145-1.207a17.693 17.693 0 0 1-.036-1.073c0-.318.012-.676.036-1.064.024-.401.073-.81.145-1.216.074-.413.183-.824.324-1.22.147-.414.345-.79.586-1.115.254-.341.574-.62.952-.829.211-.116.442-.201.69-.255m1.33 0c.25.054.48.14.692.255.377.209.697.488.951.83.241.324.438.699.587 1.114.14.397.25.808.323 1.22.072.405.121.815.145 1.216.024.392.036.75.036 1.064 0 .325-.012.686-.036 1.073-.024.396-.073.802-.145 1.207a7.648 7.648 0 0 1-.323 1.22c-.148.415-.345.79-.587 1.115a2.944 2.944 0 0 1-.951.829c-.21.115-.44.2-.688.254.235-.04.449-.102.64-.186.361-.16.676-.378.933-.648.264-.279.484-.606.653-.97.178-.384.32-.795.422-1.223a9.12 9.12 0 0 0 .216-1.334c.039-.464.059-.914.059-1.337 0-.412-.02-.86-.06-1.33a9.083 9.083 0 0 0-.215-1.34 6.59 6.59 0 0 0-.422-1.224 3.608 3.608 0 0 0-.654-.97 2.887 2.887 0 0 0-.933-.648 2.695 2.695 0 0 0-.642-.187m-.665 12.384c-.646 0-1.218-.109-1.701-.322a3.83 3.83 0 0 1-1.24-.864 4.51 4.51 0 0 1-.824-1.221A7.504 7.504 0 0 1 .46 9.733a9.97 9.97 0 0 1-.237-1.47A16.562 16.562 0 0 1 .16 6.85c0-.445.021-.918.063-1.406.042-.5.122-.997.237-1.478.117-.486.279-.955.482-1.394.213-.459.49-.87.824-1.221a3.83 3.83 0 0 1 1.24-.864C3.49.273 4.061.164 4.706.164s1.218.109 1.701.322c.478.211.895.502 1.24.864.336.354.613.764.825 1.22.203.44.365.91.482 1.395.114.476.193.973.236 1.478.042.496.063.969.063 1.406 0 .448-.021.924-.062 1.414a10.1 10.1 0 0 1-.237 1.47 7.503 7.503 0 0 1-.482 1.394c-.212.457-.49.868-.824 1.22a3.84 3.84 0 0 1-1.24.865c-.484.213-1.057.322-1.701.322" mask="url(#f)"/>
        </g>
    </g>
</svg>
