<svg xmlns="http://www.w3.org/2000/svg" xmlns:xlink="http://www.w3.org/1999/xlink" width="79" height="10" viewBox="0 0 79 10">
    <defs>
        <path id="a" d="M.147.025h8.834V9H.147z"/>
        <path id="c" d="M.329.236h6.29v8.552H.328z"/>
    </defs>
    <g fill="none" fill-rule="evenodd" opacity=".56">
        <path fill="#FEFEFE" d="M0 .662v8.55h4.883v-.93H1V.662zM8.938 9.213h1V.66h-1zM21.145.662V7.74L16.258.71l-.034-.048h-1.171v8.55h1V2.134l4.888 7.031.034.049h1.171V.662zM32.21.662L28.26 4.253V.662h-1v8.55h1V5l4.133 4.214h1.433l-4.551-4.624 4.34-3.927zM37.504.662v8.55h1v-3.95h3.917V4.33h-3.916V1.592h4.21v-.93zM47.1.662v8.55h4.883v-.93h-3.881V.662z"/>
        <g transform="translate(55.35 .425)">
            <mask id="b" fill="#fff">
                <use xlink:href="#a"/>
            </mask>
            <path fill="#FEFEFE" d="M7.98 4.512c0 .501-.081.975-.24 1.407-.16.432-.39.811-.682 1.127-.296.317-.657.57-1.075.75-.42.18-.898.273-1.42.273a3.56 3.56 0 0 1-1.418-.274 3.168 3.168 0 0 1-1.074-.748 3.341 3.341 0 0 1-.683-1.127 4.059 4.059 0 0 1-.24-1.408c0-.501.08-.975.24-1.407.158-.43.388-.81.683-1.127a3.17 3.17 0 0 1 1.074-.75A3.55 3.55 0 0 1 4.564.956c.523 0 1 .092 1.42.274.417.18.778.433 1.073.749.293.316.523.695.683 1.127.159.433.24.906.24 1.407M7.75 1.3A4.135 4.135 0 0 0 6.352.363a4.646 4.646 0 0 0-1.79-.338c-.646 0-1.248.114-1.789.338a4.125 4.125 0 0 0-1.395.937 4.32 4.32 0 0 0-.907 1.419 4.864 4.864 0 0 0-.325 1.793c0 .646.11 1.251.325 1.8.217.548.522 1.027.907 1.424.384.397.854.711 1.396.932.543.22 1.145.332 1.789.332a4.72 4.72 0 0 0 1.788-.332 4.04 4.04 0 0 0 1.397-.932 4.27 4.27 0 0 0 .906-1.424 4.884 4.884 0 0 0 .326-1.8c0-.646-.11-1.25-.326-1.793a4.298 4.298 0 0 0-.906-1.42" mask="url(#b)"/>
        </g>
        <g transform="translate(72.45 .425)">
            <mask id="d" fill="#fff">
                <use xlink:href="#c"/>
            </mask>
            <path fill="#FEFEFE" d="M5.584.236L3.587 7.352 1.555.236H.33l2.682 8.552h1.12L6.617.236z" mask="url(#d)"/>
        </g>
        <path fill="#FEFEFE" d="M68.818.661h-1.033l2.464 8.47.024.082h1.025L68.842.743z"/>
    </g>
</svg>
