<svg xmlns="http://www.w3.org/2000/svg" xmlns:xlink="http://www.w3.org/1999/xlink" width="100" height="41" viewBox="0 0 100 41">
    <defs>
        <path id="a" d="M.296.086h9.635V11.5H.296z"/>
        <path id="c" d="M.446.362h8.193V11.5H.446z"/>
        <path id="e" d="M0 40h99.924V.265H0z"/>
    </defs>
    <g fill="none" fill-rule="evenodd">
        <path fill="#FEFEFE" d="M.287.898v16.13H1.79V9.373h7.586V8.006H1.79V2.265h8.156V.898z"/>
        <path fill="#FEFEFE" d="M.162.773v16.38h1.753V9.497H9.5V7.88H1.915V2.39h8.156V.773H.161zm.25.25H9.82V2.14H1.665V8.13h7.586v1.117H1.665v7.655H.412V1.023zM16.598 17.027h1.503V.897h-1.503z"/>
        <path fill="#FEFEFE" d="M16.723 16.903h1.253V1.023h-1.253v15.88zm-.25.25h1.753V.773h-1.753v16.38zM29.743 2.265H24.23V.898h12.53v1.367h-5.514v14.763h-1.503z"/>
        <path fill="#FEFEFE" d="M29.868 16.903h1.253V2.14h5.514V1.023h-12.28V2.14h5.513v14.763zm1.503.25h-1.753V2.39h-5.513V.773h12.78V2.39H31.37v14.763zM46.464 2.265h-5.513V.898h12.53v1.367h-5.513v14.763h-1.504z"/>
        <path fill="#FEFEFE" d="M46.59 16.903h1.253V2.14h5.514V1.023h-12.28V2.14h5.512v14.763zm1.503.25H46.34V2.39h-5.513V.773h12.78V2.39h-5.513v14.763z"/>
        <g transform="translate(0 .235)">
            <path fill="#FEFEFE" d="M59.815 13.42c.304.776.718 1.372 1.24 1.79.525.417 1.243.626 2.155.626.592 0 1.115-.091 1.57-.274a3.059 3.059 0 0 0 1.129-.752c.295-.318.519-.69.672-1.116.151-.425.227-.88.227-1.366 0-.593-.125-1.102-.376-1.527a3.13 3.13 0 0 0-.978-1.036 4.271 4.271 0 0 0-1.368-.581 6.604 6.604 0 0 0-1.538-.182h-.592V7.635h.684c.424 0 .854-.057 1.286-.172a3.53 3.53 0 0 0 1.163-.535c.34-.242.618-.558.83-.945.214-.387.32-.855.32-1.401 0-.866-.269-1.576-.81-2.13-.538-.555-1.263-.832-2.175-.832a3.26 3.26 0 0 0-1.8.513 3.592 3.592 0 0 0-1.252 1.378l-1.298-.73c.439-.834 1.043-1.442 1.811-1.821.767-.38 1.613-.57 2.539-.57.608 0 1.185.088 1.733.262a4.24 4.24 0 0 1 1.434.774c.41.342.733.771.968 1.287.236.518.353 1.125.353 1.823 0 .881-.243 1.66-.728 2.335-.486.676-1.2 1.143-2.142 1.402v.045a4.07 4.07 0 0 1 1.4.512c.419.25.779.559 1.083.924a4.129 4.129 0 0 1 .957 2.687 5.22 5.22 0 0 1-.307 1.8 3.97 3.97 0 0 1-.934 1.47 4.47 4.47 0 0 1-1.56.99c-.624.243-1.353.366-2.188.366-1.215 0-2.245-.256-3.087-.764-.843-.508-1.477-1.31-1.902-2.403l1.48-.48z"/>
            <path fill="#FEFEFE" d="M58.5 13.978c.412 1 1.017 1.745 1.8 2.218.82.495 1.837.746 3.023.746.813 0 1.534-.12 2.142-.357a4.376 4.376 0 0 0 1.517-.962c.403-.403.708-.882.905-1.425a5.1 5.1 0 0 0 .3-1.757c0-.5-.082-.976-.243-1.415a4.038 4.038 0 0 0-1.736-2.088 3.948 3.948 0 0 0-1.357-.497l-.104-.018v-.246l.092-.025c.909-.249 1.607-.705 2.073-1.354.468-.652.705-1.413.705-2.261 0-.678-.114-1.274-.341-1.772a3.468 3.468 0 0 0-.935-1.242A4.109 4.109 0 0 0 64.948.77a5.58 5.58 0 0 0-1.694-.256c-.903 0-1.738.188-2.483.557-.708.349-1.279.908-1.698 1.661l1.08.607a3.707 3.707 0 0 1 1.234-1.312 3.393 3.393 0 0 1 1.867-.533c.943 0 1.705.293 2.266.87.56.575.844 1.32.844 2.217 0 .567-.113 1.059-.335 1.46-.22.403-.512.735-.868.988a3.658 3.658 0 0 1-1.203.554c-.44.117-.884.176-1.318.176h-.559v1.117h.467c.524 0 1.051.062 1.567.185.52.125.995.326 1.408.598.415.275.757.637 1.017 1.078.26.441.393.976.393 1.59 0 .498-.079.972-.235 1.409-.157.439-.392.83-.697 1.158a3.194 3.194 0 0 1-1.174.783c-.468.188-1.012.283-1.617.283-.937 0-1.687-.22-2.232-.654-.513-.409-.928-.991-1.236-1.731l-1.242.402zm4.823 3.214c-1.232 0-2.292-.263-3.151-.782-.865-.521-1.522-1.35-1.954-2.465l-.048-.123 1.718-.556.043.109c.295.751.7 1.336 1.203 1.737.5.398 1.197.6 2.076.6.572 0 1.086-.09 1.524-.265.437-.175.8-.417 1.083-.721.282-.305.5-.666.646-1.074a3.93 3.93 0 0 0 .22-1.324c0-.568-.12-1.06-.358-1.463a3.018 3.018 0 0 0-.94-.996 4.17 4.17 0 0 0-1.328-.563 6.483 6.483 0 0 0-1.509-.18h-.717V7.51h.809c.413 0 .835-.056 1.254-.167a3.41 3.41 0 0 0 1.122-.517 2.65 2.65 0 0 0 .794-.903c.201-.366.304-.817.304-1.341 0-.829-.26-1.516-.773-2.043-.512-.527-1.214-.794-2.087-.794-.64 0-1.223.166-1.731.493-.51.327-.918.775-1.21 1.331l-.06.114-1.516-.851.056-.108c.45-.855 1.078-1.486 1.867-1.876.78-.387 1.653-.583 2.594-.583.617 0 1.213.09 1.77.268.561.18 1.058.448 1.477.798.422.35.759.798 1.002 1.33.242.53.364 1.161.364 1.876 0 .902-.253 1.712-.752 2.407-.435.606-1.054 1.054-1.842 1.334.384.102.74.25 1.064.445a4.266 4.266 0 0 1 2.1 3.718c0 .65-.106 1.27-.315 1.843a4.114 4.114 0 0 1-.963 1.515c-.43.43-.97.772-1.604 1.019-.636.248-1.387.374-2.232.374zM78.814 8.273c-.53 0-1.025.098-1.48.296a3.777 3.777 0 0 0-2.301 3.486c0 .561.091 1.074.273 1.537.183.463.44.861.775 1.196.333.334.732.592 1.197.774.463.183.974.274 1.536.274s1.075-.091 1.538-.274a3.48 3.48 0 0 0 1.197-.774c.334-.335.592-.732.775-1.196.182-.463.272-.976.272-1.538 0-.516-.1-1.005-.296-1.469a3.758 3.758 0 0 0-3.486-2.313zm-2.095-.502h.045c.273-.228.641-.399 1.105-.512a5.385 5.385 0 0 1 1.288-.171c.713 0 1.374.13 1.981.388a4.823 4.823 0 0 1 1.573 1.058c.44.448.781.973 1.025 1.572.243.6.364 1.25.364 1.948 0 .729-.133 1.402-.399 2.016a4.69 4.69 0 0 1-1.105 1.583 5.15 5.15 0 0 1-1.674 1.037 5.779 5.779 0 0 1-2.108.377c-.76 0-1.46-.126-2.106-.377a5.138 5.138 0 0 1-1.675-1.037 4.675 4.675 0 0 1-1.104-1.583 5.01 5.01 0 0 1-.4-2.016c0-.425.046-.828.137-1.207.09-.38.212-.74.365-1.082.151-.342.312-.665.478-.969.167-.303.333-.591.501-.865L79.384.663h1.732l-4.397 7.108z"/>
            <path fill="#FEFEFE" d="M78.814 8.398c-.511 0-.993.095-1.43.285a3.651 3.651 0 0 0-1.94 1.951c-.19.445-.286.922-.286 1.42 0 .544.09 1.046.265 1.492.175.446.426.833.746 1.154.32.32.708.571 1.155.746.445.176.947.265 1.49.265a4.05 4.05 0 0 0 1.492-.265 3.372 3.372 0 0 0 1.155-.746c.32-.321.571-.708.746-1.154.176-.445.264-.947.264-1.492 0-.495-.096-.973-.287-1.42a3.647 3.647 0 0 0-.781-1.168 3.679 3.679 0 0 0-2.589-1.068zm0 7.563a4.299 4.299 0 0 1-1.582-.283 3.593 3.593 0 0 1-1.24-.802 3.618 3.618 0 0 1-.802-1.238 4.317 4.317 0 0 1-.282-1.584 3.917 3.917 0 0 1 2.376-3.6 3.965 3.965 0 0 1 3.049 0c.476.202.896.483 1.247.835.35.348.63.768.835 1.247.203.479.306.989.306 1.518 0 .576-.094 1.11-.281 1.584a3.612 3.612 0 0 1-.803 1.239 3.615 3.615 0 0 1-1.239.801 4.303 4.303 0 0 1-1.584.283zm.64-15.173l-4.337 7.207c-.158.259-.321.54-.5.862a13.32 13.32 0 0 0-.472.958c-.149.334-.27.69-.357 1.061-.088.37-.133.766-.133 1.178 0 .71.13 1.372.388 1.966a4.58 4.58 0 0 0 1.076 1.543 5.036 5.036 0 0 0 1.635 1.011 5.666 5.666 0 0 0 2.06.367c.74 0 1.434-.123 2.063-.367a5.046 5.046 0 0 0 1.634-1.012 4.594 4.594 0 0 0 1.076-1.541 4.929 4.929 0 0 0 .388-1.967c0-.678-.12-1.319-.355-1.9a4.658 4.658 0 0 0-.999-1.532A4.714 4.714 0 0 0 81.09 7.59a4.916 4.916 0 0 0-1.933-.377c-.384 0-.807.056-1.258.167-.442.109-.797.272-1.054.487l-.035.03h-.316L80.892.787h-1.438zm-.64 16.404c-.77 0-1.494-.13-2.151-.385a5.287 5.287 0 0 1-1.715-1.062 4.824 4.824 0 0 1-1.134-1.625 5.16 5.16 0 0 1-.41-2.066c0-.431.048-.848.14-1.236.093-.386.218-.757.373-1.104.147-.334.31-.662.482-.978.18-.325.344-.61.505-.87L79.313.537h2.027L77.089 7.41c.217-.112.468-.204.75-.272.47-.117.914-.175 1.318-.175.725 0 1.408.133 2.03.397.62.263 1.163.629 1.613 1.087.449.457.803.999 1.051 1.613.248.612.374 1.283.374 1.994 0 .742-.137 1.438-.409 2.066a4.838 4.838 0 0 1-1.134 1.625 5.301 5.301 0 0 1-1.714 1.062 5.934 5.934 0 0 1-2.154.385zM90.478 8.728c0 .426.015.892.046 1.4.03.51.092 1.026.182 1.55.091.524.224 1.037.4 1.538.173.501.402.946.683 1.333.28.387.626.698 1.035.934.412.235.905.353 1.482.353.562 0 1.052-.118 1.47-.353a3.262 3.262 0 0 0 1.047-.934c.28-.387.509-.832.684-1.333a9.848 9.848 0 0 0 .399-1.538c.09-.524.151-1.04.182-1.55.03-.508.045-.974.045-1.4 0-.41-.015-.873-.045-1.39a14.128 14.128 0 0 0-.182-1.56 9.842 9.842 0 0 0-.399-1.538 5.157 5.157 0 0 0-.684-1.333 3.243 3.243 0 0 0-1.047-.934c-.418-.235-.908-.353-1.47-.353-.562 0-1.051.118-1.47.353a3.234 3.234 0 0 0-1.047.934 5.08 5.08 0 0 0-.684 1.333 9.68 9.68 0 0 0-.399 1.538c-.09.523-.152 1.044-.182 1.56-.031.517-.046.98-.046 1.39m-1.502 0c0-.577.025-1.188.078-1.834.054-.645.153-1.276.297-1.891a9.534 9.534 0 0 1 .592-1.754 5.44 5.44 0 0 1 .968-1.47A4.375 4.375 0 0 1 92.335.766c.555-.25 1.212-.375 1.97-.375.76 0 1.417.125 1.97.375.556.251 1.03.59 1.425 1.015.395.425.718.915.968 1.469a9.65 9.65 0 0 1 .593 1.754c.144.615.242 1.246.295 1.89.054.647.08 1.258.08 1.835 0 .593-.026 1.207-.08 1.845a12.933 12.933 0 0 1-.295 1.88 9.624 9.624 0 0 1-.593 1.754 5.396 5.396 0 0 1-.968 1.47 4.366 4.366 0 0 1-1.424 1.013c-.554.25-1.21.376-1.97.376s-1.416-.125-1.97-.376a4.366 4.366 0 0 1-1.425-1.014 5.419 5.419 0 0 1-.968-1.47 9.508 9.508 0 0 1-.592-1.753 13.074 13.074 0 0 1-.297-1.88 22.258 22.258 0 0 1-.078-1.845"/>
            <path fill="#FEFEFE" d="M94.306 1.745c-.537 0-1.01.113-1.408.337-.4.225-.739.527-1.008.899a4.97 4.97 0 0 0-.667 1.3 9.588 9.588 0 0 0-.394 1.518 13.757 13.757 0 0 0-.18 1.546c-.03.502-.046.967-.046 1.383 0 .431.015.9.046 1.393.028.491.09 1.008.18 1.536.09.513.222 1.023.394 1.518.169.486.393.924.667 1.3.268.37.603.673.997.9.39.223.867.336 1.419.336.537 0 1.01-.113 1.409-.337.4-.227.74-.53 1.007-.899.272-.376.497-.814.667-1.3.17-.486.302-.997.394-1.519.09-.519.15-1.036.18-1.535.03-.5.044-.97.044-1.393a23.8 23.8 0 0 0-.044-1.383c-.03-.506-.09-1.027-.18-1.546a9.715 9.715 0 0 0-.394-1.518 5.059 5.059 0 0 0-.667-1.3 3.141 3.141 0 0 0-1.008-.899c-.397-.224-.871-.337-1.408-.337m0 14.216c-.595 0-1.115-.124-1.544-.37a3.437 3.437 0 0 1-1.074-.97 5.22 5.22 0 0 1-.701-1.364 9.84 9.84 0 0 1-.404-1.558 13.956 13.956 0 0 1-.184-1.563c-.03-.498-.046-.972-.046-1.408 0-.42.016-.89.046-1.397a13.9 13.9 0 0 1 .184-1.574c.09-.526.227-1.05.404-1.558a5.23 5.23 0 0 1 .701-1.365c.29-.4.656-.727 1.086-.97.436-.245.951-.37 1.532-.37.58 0 1.096.125 1.531.37.433.245.798.57 1.087.97.287.396.523.855.701 1.365.174.5.31 1.023.404 1.557.091.529.153 1.058.184 1.575.03.514.044.984.044 1.397 0 .428-.015.902-.044 1.408-.03.509-.093 1.035-.184 1.563-.094.535-.23 1.06-.404 1.558-.178.51-.414.969-.701 1.365a3.384 3.384 0 0 1-1.087.97c-.436.245-.95.37-1.531.37m0-15.447c-.738 0-1.384.123-1.92.365a4.26 4.26 0 0 0-1.383.985 5.326 5.326 0 0 0-.947 1.436 9.472 9.472 0 0 0-.584 1.73 13.007 13.007 0 0 0-.294 1.873c-.05.626-.077 1.24-.077 1.824 0 .6.026 1.217.077 1.835.053.627.152 1.253.294 1.861.142.606.339 1.188.584 1.731.243.54.562 1.022.947 1.437.381.41.847.742 1.383.985.536.242 1.182.365 1.92.365s1.383-.123 1.918-.365a4.266 4.266 0 0 0 1.384-.985 5.3 5.3 0 0 0 .946-1.437 9.574 9.574 0 0 0 .586-1.73c.14-.603.239-1.23.292-1.862.053-.632.08-1.249.08-1.835 0-.57-.027-1.184-.08-1.824-.053-.64-.152-1.27-.292-1.872a9.602 9.602 0 0 0-.586-1.731 5.305 5.305 0 0 0-.946-1.436A4.255 4.255 0 0 0 96.224.88c-.535-.242-1.18-.365-1.918-.365m0 16.677c-.773 0-1.454-.13-2.022-.387a4.527 4.527 0 0 1-1.465-1.043 5.582 5.582 0 0 1-.99-1.504 9.677 9.677 0 0 1-.6-1.776 13.203 13.203 0 0 1-.3-1.898 22.478 22.478 0 0 1-.078-1.856c0-.591.026-1.212.078-1.844.054-.648.155-1.29.3-1.91a9.69 9.69 0 0 1 .6-1.776 5.595 5.595 0 0 1 .99-1.503A4.536 4.536 0 0 1 92.284.65c.569-.256 1.249-.386 2.022-.386.774 0 1.454.13 2.02.386.569.257 1.061.608 1.466 1.044.4.431.734.937.99 1.503.252.557.454 1.155.6 1.776.145.615.245 1.257.299 1.91.053.646.08 1.267.08 1.844 0 .593-.027 1.217-.08 1.856a13.11 13.11 0 0 1-.298 1.898 9.779 9.779 0 0 1-.601 1.776 5.543 5.543 0 0 1-.99 1.504 4.527 4.527 0 0 1-1.465 1.043c-.567.256-1.247.387-2.021.387M5.922 30.78a1.901 1.901 0 0 0-.859-.76 2.74 2.74 0 0 0-1.12-.238c-.286 0-.568.036-.844.107-.276.072-.524.18-.744.323-.22.143-.396.332-.53.567-.132.236-.199.512-.199.829 0 .245.039.463.116.652.076.19.201.36.375.514.174.153.41.297.706.43.297.132.66.265 1.09.398.419.133.825.276 1.22.43a4.12 4.12 0 0 1 1.042.583c.302.235.542.53.721.882.18.353.269.795.269 1.327 0 .542-.107 1.013-.322 1.412a2.954 2.954 0 0 1-.852.99c-.353.26-.76.454-1.22.582-.46.128-.935.192-1.426.192-.318 0-.635-.028-.952-.084a4.585 4.585 0 0 1-.912-.261 3.706 3.706 0 0 1-.821-.46 2.771 2.771 0 0 1-.66-.698l1.105-.906c.235.4.562.7.982.906a3.004 3.004 0 0 0 2.17.184c.282-.082.535-.202.76-.36.225-.16.409-.356.552-.592.144-.235.215-.506.215-.813 0-.337-.056-.61-.169-.82a1.51 1.51 0 0 0-.521-.545 4.04 4.04 0 0 0-.89-.415l-1.258-.43a7.956 7.956 0 0 1-1.074-.42 3.301 3.301 0 0 1-.852-.584c-.24-.23-.43-.506-.567-.829-.138-.322-.208-.708-.208-1.158 0-.521.103-.977.307-1.365.205-.389.481-.714.829-.975.348-.26.741-.457 1.181-.59.44-.133.9-.2 1.381-.2.614 0 1.174.095 1.68.284.506.19.959.52 1.358.99l-1.059.92zM13.563 28.862h6.827v1.197h-5.538v3.406h5.17v1.196h-5.17v3.866h5.814v1.197h-7.103z"/>
            <g transform="translate(26 28.5)">
                <mask id="b" fill="#fff">
                    <use xlink:href="#a"/>
                </mask>
                <path fill="#FEFEFE" d="M8.535 2.602a3.108 3.108 0 0 0-1.212-.99 3.575 3.575 0 0 0-1.503-.33c-.604 0-1.159.123-1.665.369a4.166 4.166 0 0 0-1.312.99 4.543 4.543 0 0 0-.86 1.441 4.848 4.848 0 0 0-.306 1.71c0 .635.102 1.226.307 1.773a4.43 4.43 0 0 0 .852 1.427c.362.404.797.724 1.303.959a3.944 3.944 0 0 0 1.68.352c.665 0 1.259-.13 1.78-.39.522-.261.977-.637 1.366-1.128l.966.813c-.49.654-1.081 1.135-1.772 1.442-.69.307-1.47.46-2.34.46a5.53 5.53 0 0 1-2.178-.43 5.368 5.368 0 0 1-1.757-1.188A5.474 5.474 0 0 1 .718 8.079a6.038 6.038 0 0 1-.422-2.286c0-.798.136-1.544.407-2.24a5.432 5.432 0 0 1 1.143-1.81A5.423 5.423 0 0 1 3.596.53 5.479 5.479 0 0 1 5.82.086a5.78 5.78 0 0 1 2.124.399c.68.266 1.25.7 1.711 1.304l-1.12.813z" mask="url(#b)"/>
            </g>
            <g transform="translate(41.5 28.5)">
                <mask id="d" fill="#fff">
                    <use xlink:href="#c"/>
                </mask>
                <path fill="#FEFEFE" d="M8.639 7.082c0 .593-.075 1.156-.223 1.687-.148.532-.384 1-.706 1.404a3.412 3.412 0 0 1-1.266.967c-.521.24-1.156.36-1.902.36-.747 0-1.38-.12-1.903-.36a3.406 3.406 0 0 1-1.265-.967A3.904 3.904 0 0 1 .668 8.77a6.244 6.244 0 0 1-.222-1.687V.362h1.288v6.536c0 .439.046.864.138 1.273.092.41.246.772.46 1.09.215.316.502.57.86.759.358.189.808.283 1.35.283s.992-.094 1.35-.283c.358-.19.644-.443.86-.76.214-.317.367-.68.46-1.09.092-.408.137-.833.137-1.272V.362h1.29v6.72z" mask="url(#d)"/>
            </g>
            <path fill="#FEFEFE" d="M58.346 33.648h1.151c.358 0 .729-.01 1.112-.03.384-.021.737-.087 1.06-.2.321-.113.587-.289.797-.529.21-.24.314-.586.314-1.036 0-.389-.076-.7-.23-.936a1.555 1.555 0 0 0-.606-.544 2.583 2.583 0 0 0-.844-.254 7.322 7.322 0 0 0-.943-.06h-1.81v3.59zm-1.288-4.787h2.777c.522 0 1.04.031 1.557.092.516.062.98.195 1.388.4.41.204.742.503.997.897.256.394.384.928.384 1.603 0 .798-.24 1.442-.72 1.933-.482.491-1.147.803-1.996.936l3.084 5.002h-1.58l-2.946-4.879h-1.657v4.879h-1.288V28.861z"/>
            <mask id="f" fill="#fff">
                <use xlink:href="#e"/>
            </mask>
            <path fill="#FEFEFE" d="M70.697 39.724h1.288V28.862h-1.288zM86.238 30.058h-3.59v9.666h-1.289v-9.666h-3.59v-1.197h8.47zM94.584 35.044l-4.05-6.183h1.642l3.053 4.91 3.145-4.91h1.55l-4.051 6.183v4.68h-1.289z" mask="url(#f)"/>
        </g>
    </g>
</svg>
