<?xml version="1.0" standalone="no"?>
<!DOCTYPE svg PUBLIC "-//W3C//DTD SVG 20010904//EN"
 "http://www.w3.org/TR/2001/REC-SVG-20010904/DTD/svg10.dtd">
<svg version="1.0" xmlns="http://www.w3.org/2000/svg"
 width="186.000000pt" height="42.000000pt" viewBox="0 0 186.000000 42.000000"
 preserveAspectRatio="xMidYMid meet">
<metadata>
Created by potrace 1.10, written by Peter Selinger 2001-2011
</metadata>
<g transform="translate(0.000000,42.000000) scale(0.100000,-0.100000)"
fill="#f3f3f3" stroke="none">
<path d="M26 373 c-2 -2 -1 -47 2 -101 2 -53 0 -127 -5 -164 -10 -74 -5 -88
35 -88 l23 0 -3 122 c-3 104 -1 123 12 126 11 2 29 -22 55 -75 22 -43 42 -80
45 -83 3 -3 15 -23 26 -45 20 -36 26 -40 60 -40 l39 0 2 178 3 177 -40 0 c-38
0 -40 -1 -40 -31 0 -18 5 -60 12 -94 6 -35 8 -71 4 -81 -7 -18 -8 -18 -20 -1
-7 9 -18 17 -24 17 -7 0 -15 12 -18 28 -7 27 -56 113 -81 143 -12 15 -76 23
-87 12z"/>
<path d="M434 370 c-6 -6 -7 -40 -2 -94 5 -46 4 -118 0 -160 -5 -49 -5 -79 2
-86 6 -6 62 -10 128 -10 98 0 118 3 118 15 0 12 -15 15 -79 15 -51 0 -82 4
-87 13 -5 6 -9 39 -9 72 l0 60 83 5 c45 3 82 10 82 15 0 6 -37 12 -82 15 l-83
5 -1 45 c0 25 4 51 9 58 6 8 37 12 88 12 64 0 79 3 79 15 0 12 -20 15 -118 15
-65 0 -122 -4 -128 -10z"/>
<path d="M730 370 c0 -6 25 -42 55 -80 58 -72 67 -105 38 -131 -10 -9 -25 -26
-33 -38 -8 -12 -27 -36 -42 -53 -15 -17 -25 -35 -22 -39 3 -5 23 -9 44 -9 34
0 43 5 65 37 14 21 25 43 25 50 0 15 39 37 48 28 4 -4 18 -30 32 -58 23 -48
28 -52 64 -55 21 -2 46 0 55 3 14 6 15 8 0 18 -8 7 -33 37 -54 67 -21 30 -45
61 -52 68 -7 7 -13 18 -13 23 0 10 96 137 117 155 11 10 11 13 -3 18 -28 11
-72 6 -87 -9 -8 -8 -23 -33 -34 -55 -26 -58 -47 -53 -86 20 -22 42 -26 45 -70
48 -30 2 -47 -1 -47 -8z"/>
<path d="M1096 372 c-3 -6 19 -42 49 -81 57 -74 66 -103 40 -130 -41 -43 -95
-123 -90 -131 3 -6 24 -10 45 -10 37 0 40 2 65 55 14 30 30 56 35 57 6 0 14 1
20 2 5 1 22 -24 37 -54 26 -51 31 -55 67 -58 67 -6 73 3 32 48 -20 22 -36 43
-36 48 0 4 -14 22 -30 41 -17 18 -30 38 -30 43 0 11 56 84 104 135 34 37 25
47 -40 41 -35 -3 -41 -8 -64 -53 -14 -27 -26 -52 -27 -54 -8 -13 -46 21 -66
59 -21 41 -27 45 -64 48 -23 2 -44 -1 -47 -6z"/>
<path d="M1575 372 c-6 -4 -10 -74 -10 -172 0 -98 4 -168 10 -172 6 -4 51 -8
100 -8 80 0 95 3 127 25 20 14 42 25 47 25 7 0 11 23 11 55 0 46 -3 55 -18 55
-10 0 -27 6 -38 14 -18 14 -19 15 -1 45 28 47 25 90 -7 118 -24 20 -37 23
-119 23 -51 0 -96 -4 -102 -8z m169 -47 c35 -53 5 -99 -61 -93 l-38 3 -3 49
c-4 55 5 66 54 66 23 0 36 -7 48 -25z m26 -154 c14 -34 6 -84 -17 -106 -15
-15 -68 -20 -97 -9 -12 5 -16 21 -16 68 0 35 3 66 7 69 3 4 30 7 58 7 49 0 53
-2 65 -29z"/>
</g>
</svg>
