<svg xmlns="http://www.w3.org/2000/svg" xmlns:xlink="http://www.w3.org/1999/xlink" width="119" height="15" viewBox="0 0 119 15">
    <defs>
        <path id="prefix__a" d="M0 0.316L13.954 0.316 13.954 14.397 0 14.397z"/>
        <path id="prefix__c" d="M0.223 0.316L13.996 0.316 13.996 14.434 0.223 14.434z"/>
        <path id="prefix__e" d="M0.264 0.175L14.037 0.175 14.037 14.292 0.264 14.292z"/>
    </defs>
    <g fill="none" fill-rule="evenodd">
        <g transform="translate(0 .276)">
            <mask id="prefix__b" fill="#fff">
                <use xlink:href="#prefix__a"/>
            </mask>
            <path fill="#FEFEFE" d="M11.523.316V9.446l-1.162-1.258L2.489.316H0v14.081h2.467V4.157l8.638 9.434.158.172c.394.39.935.63 1.531.634h1.161V.316h-2.43z" mask="url(#prefix__b)"/>
        </g>
        <g transform="translate(35.633 .276)">
            <mask id="prefix__d" fill="#fff">
                <use xlink:href="#prefix__c"/>
            </mask>
            <path fill="#FEFEFE" d="M11.347 0.344L7.575 5.189 6.363 3.448 6.36 3.447 4.252 0.316 0.223 0.316 4.453 6.47 5.55 5.089 6.522 6.513 5.422 7.896 0.223 14.434 2.844 14.434 6.646 9.656 9.967 14.434 13.996 14.434 9.042 7.307 9.045 7.301 8.8 6.949 13.996 0.316z" mask="url(#prefix__d)"/>
        </g>
        <g transform="translate(51.42 .276)">
            <mask id="prefix__f" fill="#fff">
                <use xlink:href="#prefix__e"/>
            </mask>
            <path fill="#FEFEFE" d="M11.389 0.203L7.617 5.048 6.405 3.307 6.402 3.306 4.293 0.175 0.264 0.175 4.494 6.329 5.592 4.948 6.563 6.372 5.464 7.755 0.264 14.292 2.885 14.292 6.687 9.514 10.008 14.292 14.037 14.292 9.082 7.166 9.087 7.159 8.841 6.808 14.037 0.175z" mask="url(#prefix__f)"/>
        </g>
        <path fill="#FEFEFE" d="M19.363 2.784L31.89 2.821 32.537.611 18.875.592zM32.453 8.16V5.813l-11.05-.03v-.007h-2.535l-.001 2.197h.001v4.499h.003v.002c0 1.215.985 2.2 2.2 2.2h11.447l-.008-2.202H21.694c-.31 0-.399-.28-.399-.422V8.16M116.036.611h-9.075c-1.245 0-2.254 1.01-2.254 2.254v9.571c0 1.245 1.01 2.254 2.254 2.254h9.075c1.245 0 2.253-1.01 2.253-2.254v-9.57c0-1.246-1.008-2.255-2.253-2.255m-.29 2.996v8.088c0 .249-.203.45-.452.45h-7.592c-.248 0-.45-.201-.45-.45V3.607c0-.25.202-.451.45-.451h7.592c.25 0 .451.201.451.45M80.13 8.031h-6.25l-.727-2.3h6.978c.249 0 .45-.2.45-.45V3.306c0-.248-.201-.45-.45-.45h-8.027c-.249 0-.45.202-.45.45v1.17h-2.386V2.734c0-1.25 1.014-2.264 2.264-2.264h9.171c1.25 0 2.264 1.013 2.264 2.264v3.034c0 .405-.108.785-.295 1.114.187.329.295.708.295 1.114v4.29c0 1.25-1.014 2.263-2.264 2.263h-9.171c-1.25 0-2.264-1.013-2.264-2.263v-2.68h2.386v2.107c0 .249.201.45.45.45h8.027c.249 0 .45-.201.45-.45v-3.23c0-.25-.201-.452-.45-.452M97.85 8.031c.25 0 .45.202.45.451v3.231c0 .249-.2.45-.45.45h-8.026c-.249 0-.45-.201-.45-.45V8.482c0-.249.201-.45.45-.45h8.026zm2.491-1.226c-.4-.643-1.106-1.073-1.918-1.073h-8.599c-.249 0-.45-.202-.45-.45V3.305c0-.248.201-.45.45-.45h8.026c.25 0 .45.202.45.45v.703h2.387V2.734c0-1.25-1.014-2.264-2.264-2.264H89.252c-1.25 0-2.264 1.013-2.264 2.264v9.552c0 1.25 1.013 2.263 2.264 2.263H98.423c1.25 0 2.264-1.013 2.264-2.263v-4.29c0-.406-.108-.785-.295-1.114l-.051-.077z"/>
    </g>
</svg>
