<?xml version="1.0" standalone="no"?>
<!DOCTYPE svg PUBLIC "-//W3C//DTD SVG 20010904//EN"
 "http://www.w3.org/TR/2001/REC-SVG-20010904/DTD/svg10.dtd">
<svg version="1.0" xmlns="http://www.w3.org/2000/svg"
 width="279.000000pt" height="42.000000pt" viewBox="0 0 279.000000 42.000000"
 preserveAspectRatio="xMidYMid meet">
<metadata>
Created by potrace 1.10, written by Peter Selinger 2001-2011
</metadata>
<g transform="translate(0.000000,42.000000) scale(0.100000,-0.100000)"
fill="#ffffff" stroke="none">
<path d="M49 378 c0 -2 -1 -82 -2 -178 l-2 -175 34 -3 34 -3 -7 119 c-10 163
10 175 75 44 19 -37 36 -69 39 -72 3 -3 15 -23 26 -45 20 -36 26 -40 60 -40
l39 0 3 178 2 177 -40 0 c-37 0 -40 -2 -40 -27 0 -16 5 -63 12 -105 6 -43 9
-81 5 -84 -8 -8 -67 47 -67 63 0 14 -54 107 -78 136 -10 11 -29 17 -54 17 -21
0 -38 -1 -39 -2z"/>
<path d="M464 372 c-7 -5 -8 -37 -3 -100 4 -51 4 -124 0 -162 -4 -44 -3 -74 3
-80 6 -6 62 -10 128 -10 98 0 118 3 118 15 0 12 -15 15 -79 15 -51 0 -82 4
-88 13 -5 6 -9 39 -9 72 l1 60 83 5 c45 3 82 10 82 15 0 6 -37 12 -82 15 l-83
5 -1 45 c0 65 7 70 97 70 64 0 79 3 79 15 0 12 -20 15 -117 15 -65 0 -123 -4
-129 -8z"/>
<path d="M760 367 c0 -7 8 -22 18 -33 91 -102 109 -144 75 -175 -10 -9 -25
-26 -33 -38 -8 -12 -27 -36 -42 -53 -15 -17 -25 -35 -22 -39 3 -5 23 -9 44 -9
34 0 43 5 65 37 14 21 25 43 25 50 0 15 39 37 48 28 4 -4 18 -30 32 -58 27
-55 50 -67 109 -52 22 6 24 8 10 18 -8 7 -33 37 -54 67 -21 30 -45 61 -52 68
-7 7 -13 18 -13 23 0 10 96 137 117 155 11 10 11 13 -3 18 -28 11 -72 6 -87
-9 -8 -8 -23 -33 -34 -55 -26 -58 -47 -53 -86 20 -22 42 -26 45 -70 48 -35 2
-47 -1 -47 -11z"/>
<path d="M1126 372 c-3 -6 19 -42 49 -81 57 -74 66 -103 40 -130 -41 -43 -95
-123 -90 -131 3 -6 22 -10 40 -10 30 0 39 6 60 40 14 22 25 44 25 49 0 12 39
35 46 28 3 -2 17 -29 32 -58 l27 -54 53 -3 c28 -2 52 1 52 5 0 4 -16 26 -35
47 -19 22 -35 42 -35 45 0 3 -14 21 -30 40 -17 18 -30 38 -30 43 0 11 56 84
104 135 34 37 25 47 -40 41 -35 -3 -41 -8 -64 -53 -14 -27 -26 -52 -27 -54 -8
-13 -46 21 -66 59 -21 41 -27 45 -64 48 -23 2 -44 -1 -47 -6z"/>
<path d="M1719 355 c-57 -37 -79 -81 -79 -156 0 -52 5 -71 25 -102 81 -119
271 -96 312 38 30 97 3 177 -79 228 -42 26 -134 22 -179 -8z m136 -23 c53 -45
70 -148 36 -216 -38 -73 -85 -86 -132 -35 -27 29 -29 36 -29 118 0 82 2 88 29
119 33 36 65 41 96 14z"/>
<path d="M2084 372 c-9 -5 -9 -21 -1 -59 7 -35 7 -87 1 -165 -11 -123 -9 -128
40 -128 l29 0 -7 112 c-9 166 10 179 74 51 19 -37 37 -70 40 -73 3 -3 15 -23
26 -45 20 -36 26 -40 60 -40 l39 0 3 178 2 177 -40 0 c-37 0 -40 -2 -40 -27 0
-16 5 -63 12 -105 6 -43 9 -81 5 -84 -8 -9 -67 47 -67 64 0 7 -11 30 -25 52
-14 22 -25 43 -25 48 0 5 -10 18 -23 30 -23 22 -80 30 -103 14z"/>
<path d="M2504 372 c-7 -5 -8 -36 -2 -100 4 -52 4 -125 0 -163 -5 -44 -5 -72
2 -79 6 -6 61 -10 128 -10 98 0 118 3 118 15 0 12 -15 15 -79 15 -51 0 -82 4
-88 13 -5 6 -9 39 -9 72 l1 60 83 5 c45 3 82 10 82 15 0 6 -37 12 -82 15 l-83
5 0 45 c0 65 6 70 96 70 64 0 79 3 79 15 0 12 -20 15 -117 15 -65 0 -123 -4
-129 -8z"/>
</g>
</svg>
